<?xml version="1.0" encoding="UTF-8"?><svg xmlns="http://www.w3.org/2000/svg" xmlns:xlink="http://www.w3.org/1999/xlink" viewBox="0 0 940 528.75"><defs><style>.cls-1{fill:none;}.cls-2{clip-path:url(#clippath);}.cls-3{fill:#e5a7c7;}.cls-4{fill:#d97aa7;}.cls-5{fill:#c74d93;}.cls-6{fill:#e12988;}.cls-7{isolation:isolate;}.cls-8{mix-blend-mode:soft-light;opacity:.5;}</style><clipPath id="clippath"><rect class="cls-1" width="940" height="528.75"/></clipPath></defs><g class="cls-7"><g id="Layer_2"><g id="Layer_1-2"><g class="cls-2"><g class="cls-8"><path class="cls-4" d="m1216.84,77.91c-18.09-10.6-36.87-19.03-57.09-22.89-12.91-2.47-25.85-2.98-38.73-2.05-20.53,1.48-40.21,7.53-59.09,17.26-13.93,7.18-26.93,16.72-41.67,21.82-13.17,4.56-26.46,8.09-40.25,9.33-7.54.68-15.07.86-22.55.51-13.03-.61-25.87-3.18-38.43-7.42-12.92-4.36-25.08-10.77-37.11-17.73-16.8-9.72-34.28-17.38-52.85-21.39-13.97-3.02-28.13-3.52-42.18-2.35-22.16,1.85-43.29,8.84-63.39,20.01-10.31,5.72-20.17,12.52-31.04,16.89-12.35,4.96-24.93,8.61-37.92,10.61-9.34,1.43-18.68,1.75-28.03,1.46-13.33-.42-26.4-3.03-39.26-7.09v-.36c-12.17-4.36-23.91-9.92-35.33-16.61-18.09-10.6-36.87-19.03-57.09-22.89-12.91-2.47-25.85-2.98-38.73-2.05-20.53,1.48-40.21,7.53-59.09,17.26-13.93,7.18-26.93,16.72-41.67,21.82-13.17,4.56-26.46,8.09-40.25,9.33-7.54.68-15.07.86-22.55.51-13.03-.61-25.87-3.18-38.43-7.42-12.92-4.36-25.08-10.77-37.11-17.73-16.8-9.72-34.28-17.38-52.85-21.39-13.97-3.02-28.13-3.52-42.18-2.35-22.16,1.85-43.29,8.84-63.39,20.01-10.31,5.72-20.17,12.52-31.04,16.89-12.35,4.96-24.93,8.61-37.92,10.61-9.34,1.43-18.68,1.75-28.03,1.46-13.77-.43-27.25-3.19-40.52-7.47-5.44-1.76-10.67-4.17-15.95-6.45v182.98c10.65,4.95,21.54,8.99,32.92,11.35,9,1.86,18.02,2.8,27.17,3,14.89.32,29.52-1.39,43.9-5.76,13.47-4.1,26.42-9.68,38.61-17.7,18.57-12.22,38.51-20.29,59.6-24.15,11.76-2.16,23.67-3.37,35.58-2.46,20.04,1.53,39.5,6.34,58.12,15.3,9.64,4.64,18.7,10.65,28.09,15.89,15.1,8.42,31.03,13.89,47.52,17.05,11.92,2.29,24.04,2.52,36.03,1.55,18.64-1.5,36.67-6.58,53.95-15.06,7.17-3.52,13.78-8.23,20.68-12.32,14.48-8.59,29.75-14.77,45.72-18.43,13.06-2.99,26.26-4.57,39.59-4.06,15.05.58,29.83,3.31,44.27,8.31,13.36,4.62,26,11.14,38.27,18.81,4.86,3.04,9.84,5.78,14.92,8.23v.44c10.65,4.95,21.54,8.99,32.92,11.35,9,1.86,18.02,2.8,27.17,3,14.89.32,29.52-1.39,43.9-5.76,13.47-4.1,26.42-9.68,38.61-17.7,18.57-12.22,38.51-20.29,59.6-24.15,11.76-2.16,23.67-3.37,35.58-2.46,20.04,1.53,39.5,6.34,58.12,15.3,9.64,4.64,18.7,10.65,28.09,15.89,15.1,8.42,31.03,13.89,47.52,17.05,11.92,2.29,24.04,2.52,36.03,1.55,18.64-1.5,36.67-6.58,53.95-15.06,7.17-3.52,13.78-8.23,20.68-12.32,14.48-8.59,29.75-14.77,45.72-18.43,13.06-2.99,26.26-4.57,39.59-4.06,15.05.58,29.83,3.31,44.26,8.31,13.36,4.62,26,11.14,38.27,18.81,10.23,6.4,20.95,11.52,32.13,15.23V94.51c-12.17-4.36-23.91-9.92-35.33-16.61Z"/><path class="cls-5" d="m1227.55,253.03c-13.07-7.17-25.6-15.72-39.37-21.1-13.26-5.18-26.79-8.81-40.82-10.19-8.36-.82-16.71-1.01-24.99-.48-12.66.8-25.15,3.48-37.37,7.61-13.39,4.53-25.97,11.11-38.21,18.85-17.19,10.88-35.59,17.64-54.99,21.15-11.86,2.14-23.73,2.88-35.61,2.12-13.01-.83-25.84-3.51-38.39-7.85-12.6-4.35-24.54-10.45-36.13-17.55-13.46-8.25-27.44-14.94-42.25-19.17-7.83-2.24-15.78-3.62-23.81-4.66-7.08-.92-14.12-.59-21.17-.6-13.69,0-27.07,2.73-40.25,6.88-14.27,4.5-27.59,11.51-40.54,19.74-17.08,10.85-35.42,17.53-54.67,21.01-11.13,2.01-22.31,2.9-33.51,2.27-13.05-.73-25.8-3.15-38.23-7.2v-.3c-8.42-2.82-16.68-6.18-24.62-10.54-13.07-7.17-25.6-15.72-39.37-21.1-13.26-5.18-26.79-8.81-40.82-10.19-8.36-.82-16.71-1.01-24.99-.48-12.66.8-25.15,3.48-37.37,7.61-13.39,4.53-25.97,11.11-38.21,18.85-17.19,10.88-35.59,17.64-54.99,21.15-11.86,2.14-23.74,2.88-35.61,2.12-13.01-.83-25.84-3.51-38.39-7.85-12.6-4.35-24.54-10.45-36.13-17.55-13.46-8.25-27.44-14.94-42.25-19.17-7.83-2.24-15.78-3.62-23.81-4.66-7.08-.92-14.12-.59-21.17-.6-13.69,0-27.07,2.73-40.25,6.88-14.27,4.5-27.59,11.51-40.54,19.74-17.08,10.85-35.42,17.53-54.67,21.01-11.13,2.01-22.31,2.9-33.51,2.27-19.15-1.07-37.64-5.78-55.44-13.93v183.11c12.86,6.08,26.16,10.38,40.03,12.64,7.68,1.25,15.4,2.35,23.07,2.15,24.36-.64,47.92-5.99,70.05-18.27,10.94-6.07,21.24-13.63,32.67-18.53,12.37-5.3,24.98-9.38,38.08-11.61,11.38-1.94,22.78-2.87,34.21-2.19,13.49.8,26.77,3.48,39.77,7.91,14.6,4.97,28.15,12.56,41.54,20.84,13.81,8.54,28.68,14.17,44.02,17.93,10.86,2.66,21.91,4.16,32.96,3.93,16.29-.34,32.34-3.11,48.04-8.59,10.01-3.49,19.72-7.97,28.88-13.51,6.09-3.69,11.92-8.06,18.28-11.26,14.47-7.3,29.46-12.38,45.12-15,10.56-1.77,21.13-2.77,31.77-2.3,14.22.63,28.2,3.12,41.86,7.82,14.48,4.98,28.19,11.89,41.39,20.48,4.26,2.77,8.68,5.18,13.19,7.33v.27c12.86,6.08,26.16,10.38,40.03,12.64,7.68,1.25,15.4,2.35,23.07,2.15,24.36-.64,47.92-5.99,70.05-18.27,10.94-6.07,21.24-13.63,32.67-18.53,12.37-5.3,24.98-9.38,38.08-11.61,11.38-1.94,22.78-2.87,34.21-2.19,13.49.8,26.77,3.48,39.77,7.91,14.6,4.97,28.15,12.56,41.54,20.84,13.81,8.54,28.68,14.17,44.02,17.93,10.86,2.66,21.91,4.16,32.96,3.93,16.29-.34,32.34-3.11,48.04-8.59,10.01-3.49,19.72-7.97,28.88-13.51,6.09-3.69,11.92-8.06,18.28-11.26,14.47-7.3,29.46-12.38,45.12-15,10.56-1.77,21.13-2.77,31.77-2.3,14.22.63,28.2,3.12,41.86,7.82,14.48,4.98,28.19,11.89,41.39,20.48,9.56,6.22,19.86,10.67,30.4,14.26v-183.33c-8.42-2.82-16.68-6.18-24.62-10.54Z"/><path class="cls-3" d="m587.23-14.01H-94.92v115.93c11.59,5.37,23.53,9.35,35.92,11.96,13.23,2.79,26.53,2.94,39.74,2.03,18.27-1.27,35.89-6.65,52.82-14.98,11.83-5.82,22.98-13.25,34.81-19.02,11.43-5.57,23.3-9.37,35.5-11.83,5.9-1.19,11.79-2.45,17.81-2.46.39,0,.78-.47,1.17-.73h24.38c2.76,1.63,5.85,1.04,8.75,1.46,13.12,1.88,25.81,5.57,38.23,10.75,9.49,3.96,18.26,9.69,27.36,14.61,18.14,9.81,36.78,17.77,56.82,20.99,11.91,1.91,23.85,2.14,35.66,1.19,21-1.69,41.07-8.2,60.07-18.96,12.66-7.17,25-15.21,38.6-19.96,48.23-16.86,96.67-10.57,140.45,15.75,5.49,3.3,11.11,6.37,16.85,9.09v.11c11.59,5.37,23.53,9.35,35.92,11.96,13.23,2.79,26.53,2.94,39.74,2.03,18.27-1.27,35.89-6.65,52.82-14.98,11.83-5.82,22.98-13.25,34.81-19.02,27.04-13.18,57.96-17.82,87.61-13.56,13.12,1.88,25.81,5.57,38.23,10.75,9.49,3.96,18.26,9.69,27.36,14.61,18.14,9.81,36.78,17.77,56.82,20.99,11.91,1.91,23.85,2.14,35.66,1.19,21-1.69,41.07-8.2,60.07-18.96,12.66-7.17,25-15.21,38.6-19.96,13.49-4.71,27.12-8.61,41.29-9.27.71-.03,1.4-.07,1.87-.81h22.99c2.86,1.85,6.1,1,9.11,1.41,23.17,3.13,44.57,12.01,65.2,24.42,10.85,6.53,22.18,12.15,34.06,15.97V-14.01h-664.94Z"/><path class="cls-6" d="m1209.68,411.66c-12.79-8.16-26.71-13.44-40.96-17.29-15.78-4.27-31.87-5.16-47.92-3.99-18.17,1.32-35.74,6.34-52.71,14.2-9.69,4.49-18.51,10.87-27.81,16.18-15.15,8.65-31.15,14-47.79,17.2-12.17,2.34-24.43,3.02-36.65,2.17-19.23-1.33-37.85-6.34-55.67-15.07-8.32-4.07-16.18-9.17-24.22-13.88-14.09-8.25-28.95-14.04-44.45-17.77-14.4-3.47-28.99-4.08-43.51-3.01-21.36,1.57-41.95,7.59-61.25,18.56-13.06,7.42-25.49,16.38-39.54,21.34-13.15,4.65-26.46,8.09-40.25,9.35-7.89.72-15.77.94-23.6.48-12.23-.71-24.3-3.14-36.14-6.96v-.37c-14.8-5.27-28.87-12.44-42.48-21.13-12.79-8.16-26.71-13.44-40.96-17.29-15.78-4.27-31.87-5.16-47.92-3.99-18.17,1.32-35.74,6.34-52.71,14.2-9.69,4.49-18.51,10.87-27.81,16.18-15.15,8.65-31.15,14-47.79,17.2-12.17,2.34-24.43,3.02-36.65,2.17-19.23-1.33-37.85-6.34-55.67-15.07-8.32-4.07-16.18-9.17-24.22-13.88-14.09-8.25-28.95-14.04-44.45-17.77-14.4-3.47-28.99-4.08-43.51-3.01-21.36,1.57-41.95,7.59-61.25,18.56-13.06,7.42-25.49,16.38-39.54,21.34-13.15,4.65-26.46,8.09-40.25,9.35-7.89.72-15.77.94-23.6.48-12.67-.74-25.15-3.3-37.4-7.36-5.43-1.8-10.67-4.2-15.94-6.47v182.98c10.65,4.95,21.54,8.97,32.91,11.36,10.38,2.18,20.81,2.91,31.36,2.97,26.56.14,51.54-7.18,74.97-21.32,12.46-7.52,24.89-14.94,38.38-19.61,10.5-3.64,21.17-6.3,32.11-7.69,8.53-1.08,17.05-1.97,25.6-1.48,20.19,1.16,39.76,5.72,58.59,14.5,12.72,5.93,24.4,14.32,37.06,20.34,13.72,6.52,27.83,11.24,42.58,13.69,11.56,1.92,23.15,2.05,34.65,1.28,18.19-1.23,35.72-6.5,52.59-14.64,11.36-5.48,21.68-13.34,33.03-18.87,12.31-6,25.01-10.32,38.12-13.07,12.77-2.68,25.68-4.09,38.63-3.18,20.05,1.41,39.5,6.26,58.14,15.17,6.11,2.92,11.98,6.38,17.83,9.92,6.04,3.65,12.16,7.04,18.41,10.07v.55c10.65,4.95,21.54,8.97,32.91,11.36,10.38,2.18,20.81,2.91,31.36,2.97,26.56.14,51.54-7.18,74.97-21.32,12.46-7.52,24.89-14.94,38.38-19.61,10.5-3.64,21.18-6.3,32.11-7.69,8.53-1.08,17.05-1.97,25.6-1.48,20.19,1.16,39.76,5.72,58.59,14.5,12.72,5.93,24.4,14.32,37.06,20.34,13.72,6.52,27.83,11.24,42.58,13.69,11.56,1.92,23.15,2.05,34.65,1.28,18.19-1.23,35.72-6.5,52.59-14.64,11.36-5.48,21.68-13.34,33.03-18.87,12.31-6,25.01-10.32,38.12-13.07,12.77-2.68,25.68-4.09,38.63-3.18,20.05,1.41,39.5,6.26,58.14,15.17,6.11,2.92,11.98,6.38,17.83,9.92,11.46,6.94,23.23,12.96,35.62,17.28v-183.13c-14.8-5.27-28.87-12.44-42.48-21.13Z"/></g></g></g></g></g></svg>