<?xml version="1.0" encoding="UTF-8"?><svg id="Layer_2" xmlns="http://www.w3.org/2000/svg" viewBox="0 0 195.98 53.07"><defs><style>.cls-1{fill:#801c5c;}</style></defs><g id="Layer_1-2"><path class="cls-1" d="m45.36,49.25v2.88h-20.31v-2.88h3.1v-24.27c0-2.3-1.44-4.39-4.1-4.39-2.81,0-4.97,1.87-6.84,6.05v22.61h3.67v2.88H0v-2.88h5.04V2.88H0V0h17.21v21.82c2.3-4.54,6.98-7.2,12.6-7.2,6.84,0,10.51,3.96,10.51,10.44v24.19h5.04Z"/><path class="cls-1" d="m84.98,41.55c-2.23,6.48-7.7,11.52-17.71,11.52-10.51,0-19.87-6.12-19.87-19.44s9.15-19.01,19.15-19.01,17.79,5.62,17.79,16.34v2.88h-24.05c.22,10.37,4.39,14.54,10.44,14.54,5.47,0,9.29-3.53,11.31-8.14l2.95,1.3Zm-24.63-11.16h12.1c-.14-9.36-2.45-12.38-5.98-12.38s-5.83,2.88-6.12,12.38Z"/><path class="cls-1" d="m108.93,49.25v2.88h-22.32v-2.88h5.04V3.1h-5.04V.22h17.21v49.04h5.11Z"/><path class="cls-1" d="m134.18,49.25v2.88h-22.32v-2.88h5.04V3.1h-5.04V.22h17.21v49.04h5.11Z"/><path class="cls-1" d="m135.88,33.77c0-13.11,10.37-19.15,19.8-19.15s19.73,6.05,19.73,19.15-10.3,19.3-19.73,19.3-19.8-6.12-19.8-19.3Zm26.71,0c0-10.95-2.3-16.13-6.91-16.13s-6.91,5.18-6.91,16.13,2.23,16.27,6.91,16.27,6.91-5.18,6.91-16.27Z"/><path class="cls-1" d="m179.05,9.86c0-5.69,3.74-8.64,8.42-8.64s8.5,2.95,8.5,8.64c0,7.34-6.91,17.5-6.98,24.91h-2.88c-.22-7.42-7.06-17.57-7.06-24.91Zm1.37,36.51c0-3.96,2.88-6.91,7.06-6.91s7.2,2.95,7.2,6.91c0,3.75-2.95,6.7-7.2,6.7s-7.06-2.95-7.06-6.7Z"/></g></svg>