<?xml version="1.0" encoding="UTF-8"?><svg id="Layer_2" xmlns="http://www.w3.org/2000/svg" viewBox="0 0 287.96 90.89"><defs><style>.cls-1{fill:#ee3b94;}.cls-2{fill:#ed0f86;}.cls-3{fill:#e75fa3;}.cls-4{fill:#a3216e;}</style></defs><g id="Layer_1-2"><path class="cls-3" d="m91.38,65.79v-4.85h2.61c.61,0,1.05.12,1.34.34.29.22.43.54.43.97,0,.28-.08.51-.25.71s-.42.33-.74.39v.03c.38.03.66.15.85.36.18.2.28.46.28.76,0,.42-.15.74-.45.96-.3.23-.75.34-1.34.34h-2.73Zm1.39-2.88h.89c.23,0,.39-.04.5-.12.11-.08.16-.21.16-.38s-.05-.3-.16-.39c-.11-.08-.27-.13-.5-.13h-.89v1.01Zm0,1.93h1.04c.21,0,.37-.04.48-.13.11-.08.16-.21.16-.39s-.06-.31-.16-.39c-.11-.08-.27-.13-.48-.13h-1.04v1.03Z"/><path class="cls-3" d="m98.06,65.79v-4.85h2.46c.63,0,1.12.14,1.47.42.35.28.52.67.52,1.17s-.17.9-.52,1.17c-.35.27-.84.41-1.47.41h-1.01v1.68h-1.45Zm1.45-2.6h.83c.24,0,.43-.05.55-.16s.19-.26.19-.48-.06-.37-.19-.47-.31-.15-.55-.15h-.83v1.26Zm1.71,2.6l-1.22-2.04,1.13-.44,1.62,2.48h-1.52Z"/><path class="cls-3" d="m104.42,65.79l1.78-4.85h1.76l1.78,4.85h-1.46l-.32-1h-1.82l-.32,1h-1.4Zm2.03-1.99h1.23l-.61-1.84-.61,1.84Z"/><path class="cls-3" d="m116.45,60.94v4.85h-1.65l-1.43-2.55-.37-.76h-.02l.05,1.07v2.23h-1.36v-4.85h1.65l1.43,2.54.37.77h.03l-.05-1.07v-2.23h1.35Z"/><path class="cls-3" d="m118.86,65.79v-4.85h2.17c.82,0,1.45.21,1.89.64.44.42.66,1.02.66,1.79s-.22,1.36-.66,1.79c-.44.42-1.07.64-1.89.64h-2.17Zm1.45-1.1h.73c.37,0,.64-.11.81-.34.17-.23.26-.55.26-.99s-.08-.77-.26-.99-.44-.33-.81-.33h-.73v2.65Z"/><path class="cls-3" d="m127.21,60.94v4.85h-1.47v-4.85h1.47Z"/><path class="cls-3" d="m134.39,60.94v4.85h-1.65l-1.43-2.55-.37-.76h-.02l.05,1.07v2.23h-1.36v-4.85h1.65l1.43,2.54.37.77h.03l-.05-1.07v-2.23h1.35Z"/><path class="cls-3" d="m138.89,65.86c-.46,0-.87-.1-1.22-.29s-.63-.48-.82-.85c-.2-.37-.29-.82-.29-1.35s.1-.97.31-1.35c.2-.37.5-.66.88-.85s.84-.29,1.37-.29c.57,0,1.05.12,1.44.35.39.24.65.58.8,1.04l-1.27.38c-.06-.26-.18-.44-.34-.54s-.36-.15-.58-.15-.42.05-.6.16-.31.26-.41.47c-.1.21-.15.47-.15.78s.05.58.14.8c.09.22.23.38.41.48.18.11.4.16.68.16.14,0,.27-.02.38-.06.12-.04.21-.09.29-.16.08-.07.14-.15.18-.24s.06-.19.06-.3v-.07h-1.07v-.79h2.27v2.59h-.94l-.04-.7c-.12.22-.3.4-.54.55-.24.15-.55.22-.92.22Z"/><path class="cls-3" d="m148.47,59.62v7.63h-1.3v-7.63h1.3Z"/><path class="cls-3" d="m155.93,64.68h2.55v1.11h-4.02v-4.85h1.47v3.74Z"/><path class="cls-3" d="m160.3,65.79l1.78-4.85h1.76l1.78,4.85h-1.46l-.32-1h-1.82l-.32,1h-1.4Zm2.03-1.99h1.23l-.61-1.84-.61,1.84Z"/><path class="cls-3" d="m168.28,64.01l-1.81-3.06h1.52l.7,1.33.35.73.35-.73.71-1.33h1.46l-1.81,3.06v1.78h-1.47v-1.78Z"/><path class="cls-3" d="m175.47,65.86c-.53,0-.98-.1-1.35-.3s-.67-.48-.87-.86c-.2-.37-.3-.82-.3-1.34s.1-.97.3-1.34c.2-.37.49-.66.87-.86s.83-.3,1.35-.3.98.1,1.36.3.67.48.87.86c.2.37.3.82.3,1.34s-.1.97-.3,1.34c-.2.37-.49.66-.87.86s-.83.3-1.36.3Zm0-1.13c.23,0,.42-.05.58-.15s.28-.25.36-.45c.08-.2.13-.46.13-.77s-.04-.57-.13-.77c-.08-.2-.21-.35-.36-.45s-.35-.15-.58-.15-.41.05-.57.15c-.16.1-.28.25-.36.45-.08.2-.13.46-.13.77s.04.56.13.77c.08.21.2.36.36.45.16.1.35.15.57.15Z"/><path class="cls-3" d="m184.74,60.94v2.82c0,.68-.19,1.2-.58,1.56-.38.36-.97.54-1.75.54s-1.37-.18-1.75-.54c-.38-.36-.58-.88-.58-1.56v-2.82h1.47v2.86c0,.32.07.55.21.71s.36.23.65.23.52-.08.66-.23c.14-.15.21-.39.21-.71v-2.86h1.46Z"/><path class="cls-3" d="m191.49,60.94v1.11h-4.77v-1.11h4.77Zm-1.65.34v4.51h-1.47v-4.51h1.47Z"/><path class="cls-3" d="m198.43,59.62v7.63h-1.3v-7.63h1.3Z"/><path class="cls-3" d="m206.51,65.86c-.46,0-.87-.1-1.22-.29s-.63-.48-.82-.85c-.2-.37-.29-.82-.29-1.35s.1-.97.31-1.35c.2-.37.5-.66.88-.85s.84-.29,1.37-.29c.57,0,1.05.12,1.44.35.39.24.65.58.8,1.04l-1.27.38c-.06-.26-.18-.44-.34-.54s-.36-.15-.58-.15-.42.05-.6.16-.31.26-.41.47c-.1.21-.15.47-.15.78s.05.58.14.8c.09.22.23.38.41.48.18.11.4.16.68.16.14,0,.27-.02.38-.06.12-.04.21-.09.29-.16.08-.07.14-.15.18-.24s.06-.19.06-.3v-.07h-1.07v-.79h2.27v2.59h-.94l-.04-.7c-.12.22-.3.4-.54.55-.24.15-.55.22-.92.22Z"/><path class="cls-3" d="m211.24,65.79v-4.85h2.46c.63,0,1.12.14,1.47.42.35.28.52.67.52,1.17s-.17.9-.52,1.17c-.35.27-.84.41-1.47.41h-1.01v1.68h-1.45Zm1.45-2.6h.83c.24,0,.43-.05.55-.16s.19-.26.19-.48-.06-.37-.19-.47-.31-.15-.55-.15h-.83v1.26Zm1.71,2.6l-1.22-2.04,1.13-.44,1.62,2.48h-1.52Z"/><path class="cls-3" d="m217.6,65.79l1.78-4.85h1.76l1.78,4.85h-1.46l-.32-1h-1.82l-.32,1h-1.4Zm2.03-1.99h1.23l-.61-1.84-.61,1.84Z"/><path class="cls-3" d="m227.33,60.94c.6,0,1.07.14,1.41.43.34.29.51.7.51,1.23s-.17.92-.51,1.21c-.34.29-.81.44-1.41.44h-1.03v1.54h-1.45v-4.85h2.48Zm-.25,2.31c.24,0,.43-.05.55-.16.12-.11.19-.27.19-.48s-.06-.38-.19-.49c-.12-.11-.31-.16-.55-.16h-.78v1.29h.78Z"/><path class="cls-3" d="m234.53,60.94h1.45v4.85h-1.45v-1.9h-1.8v1.9h-1.45v-4.85h1.45v1.84h1.8v-1.84Z"/><path class="cls-3" d="m239.86,60.94v4.85h-1.47v-4.85h1.47Z"/><path class="cls-3" d="m246.79,64.34c-.05.31-.17.57-.36.8s-.46.41-.78.53-.7.19-1.13.19c-.52,0-.96-.1-1.33-.29-.37-.2-.65-.48-.85-.85-.2-.37-.3-.82-.3-1.35s.1-.97.3-1.35c.2-.37.49-.66.87-.85s.83-.29,1.36-.29c.36,0,.7.06,1,.17.31.11.56.28.77.51.21.23.34.51.4.84l-1.32.39c-.03-.29-.13-.5-.29-.61-.16-.11-.35-.17-.59-.17-.21,0-.39.05-.55.15s-.28.25-.37.45c-.09.2-.13.46-.13.77s.04.56.13.77c.09.21.21.36.37.45s.35.15.56.15c.28,0,.5-.06.65-.18.15-.12.24-.31.27-.57l1.31.35Z"/><path class="cls-3" d="m252.19,65.79v-4.85h2.17c.82,0,1.45.21,1.89.64.44.42.66,1.02.66,1.79s-.22,1.36-.66,1.79c-.44.42-1.07.64-1.89.64h-2.17Zm1.45-1.1h.73c.37,0,.64-.11.81-.34.17-.23.26-.55.26-.99s-.08-.77-.26-.99-.44-.33-.81-.33h-.73v2.65Z"/><path class="cls-3" d="m259.06,65.79v-4.85h4.1v1.03h-2.66v.88h2.07v.99h-2.07v.92h2.71v1.03h-4.16Z"/><path class="cls-3" d="m267.36,65.86c-.51,0-.95-.06-1.32-.19-.37-.12-.69-.32-.97-.58l.62-.95c.21.23.45.39.72.5.27.11.59.16.95.16.17,0,.31-.02.42-.05.11-.03.2-.08.26-.13s.09-.13.09-.22c0-.08-.03-.15-.08-.2s-.13-.1-.22-.13-.2-.06-.32-.09l-.81-.13c-.31-.05-.57-.12-.81-.23-.23-.11-.41-.26-.53-.45s-.19-.43-.19-.71c0-.32.09-.6.27-.84.18-.24.44-.43.77-.56.33-.13.73-.2,1.18-.2.34,0,.64.03.9.08.26.05.5.14.71.26.21.12.42.26.61.44l-.63.94c-.17-.17-.34-.3-.49-.4-.15-.1-.31-.17-.48-.21-.17-.04-.37-.06-.59-.06-.25,0-.44.05-.57.14-.13.09-.19.2-.19.32,0,.08.03.15.1.2.06.05.15.09.26.12.11.03.24.06.38.09l.83.15c.29.05.54.12.74.23.21.11.37.25.48.42.11.17.17.39.17.65,0,.33-.09.62-.28.86-.18.25-.44.43-.77.57s-.73.2-1.18.2Z"/><path class="cls-3" d="m273.21,60.94v4.85h-1.47v-4.85h1.47Z"/><path class="cls-3" d="m277.71,65.86c-.46,0-.87-.1-1.22-.29s-.63-.48-.82-.85c-.2-.37-.29-.82-.29-1.35s.1-.97.31-1.35c.2-.37.5-.66.88-.85s.84-.29,1.37-.29c.57,0,1.05.12,1.44.35.39.24.65.58.8,1.04l-1.27.38c-.06-.26-.18-.44-.34-.54s-.36-.15-.58-.15-.42.05-.6.16-.31.26-.41.47c-.1.21-.15.47-.15.78s.05.58.14.8c.09.22.23.38.41.48.18.11.4.16.68.16.14,0,.27-.02.38-.06.12-.04.21-.09.29-.16.08-.07.14-.15.18-.24s.06-.19.06-.3v-.07h-1.07v-.79h2.27v2.59h-.94l-.04-.7c-.12.22-.3.4-.54.55-.24.15-.55.22-.92.22Z"/><path class="cls-3" d="m287.23,60.94v4.85h-1.65l-1.43-2.55-.37-.76h-.02l.05,1.07v2.23h-1.36v-4.85h1.65l1.43,2.54.37.77h.03l-.05-1.07v-2.23h1.35Z"/><path class="cls-4" d="m98.35,50.28c0,3.61-2.49,4.57-4.94,4.57-1.85,0-2.97-.87-2.97-2.38,0-1.07.64-1.69,1.56-1.69.96,0,1.4.55,1.4,1.33s-.62,1.33-1.4,1.33c-.16,0-.3-.02-.41-.05.27.37.73.57,1.33.57.94,0,1.6-.66,1.6-2.13v-12.67h-1.62v-.92h5.47v12.03Zm-4.23-15.9c0-1.26.94-2.06,2.31-2.06s2.33.8,2.33,2.06-1.01,2.06-2.33,2.06-2.31-.8-2.31-2.06Z"/><path class="cls-4" d="m112.58,46.51c-.71,2.06-2.45,3.66-5.63,3.66-3.34,0-6.31-1.94-6.31-6.18s2.9-6.04,6.08-6.04,5.65,1.78,5.65,5.19v.92h-7.64c.07,3.29,1.4,4.62,3.32,4.62,1.74,0,2.95-1.12,3.59-2.58l.94.41Zm-7.82-3.55h3.84c-.05-2.97-.78-3.93-1.9-3.93s-1.85.92-1.94,3.93Z"/><path class="cls-4" d="m116.1,49.27c-.57,0-.85.27-.98.78h-.69l-.02-4.32h.64c.91,2.1,2.95,3.41,4.64,3.41,1.17,0,1.76-.46,1.76-1.3,0-1.05-.89-1.53-3.29-2.17-2.79-.78-3.84-2.08-3.84-4.19,0-2.56,2.08-3.52,4-3.52,1.74,0,2.58.69,3.34.69.5,0,.8-.21.85-.64h.57l.09,3.8h-.59c-.92-1.67-2.47-2.9-4.03-2.93-1.05,0-1.74.48-1.74,1.24,0,.91,1.14,1.28,2.95,1.81,2.84.87,4.19,2.06,4.19,4.35,0,2.79-2.29,3.91-4.14,3.91s-2.93-.89-3.71-.89Z"/><path class="cls-4" d="m127.64,49.27c-.57,0-.85.27-.98.78h-.69l-.02-4.32h.64c.91,2.1,2.95,3.41,4.64,3.41,1.17,0,1.76-.46,1.76-1.3,0-1.05-.89-1.53-3.29-2.17-2.79-.78-3.84-2.08-3.84-4.19,0-2.56,2.08-3.52,4-3.52,1.74,0,2.58.69,3.34.69.5,0,.8-.21.85-.64h.57l.09,3.8h-.59c-.92-1.67-2.47-2.9-4.03-2.93-1.05,0-1.74.48-1.74,1.24,0,.91,1.14,1.28,2.95,1.81,2.84.87,4.19,2.06,4.19,4.35,0,2.79-2.29,3.91-4.14,3.91s-2.93-.89-3.71-.89Z"/><path class="cls-4" d="m143.74,48.95v.92h-7.07v-.92h1.6v-9.79h-1.6v-.92h5.44v10.7h1.62Zm-5.97-14.66c0-1.21.96-2.06,2.31-2.06s2.29.82,2.29,2.06-.96,2.06-2.29,2.06-2.31-.82-2.31-2.06Z"/><path class="cls-4" d="m156.04,46.35c-.82,2.31-2.22,3.82-5.1,3.82s-6.24-1.67-6.24-6.13,3.16-6.08,6.29-6.08c2.95,0,4.67,1.56,4.67,3.57,0,1.42-.91,2.1-2.04,2.1-1.19,0-1.81-.75-1.81-1.67s.64-1.65,1.69-1.65c.3,0,.55.07.75.16-.43-.8-1.28-1.21-2.24-1.21-1.78,0-3.23,1.14-3.23,4.62,0,2.84.94,4.78,3.09,4.78,1.72,0,2.56-1.28,3.2-2.7l.96.39Z"/><path class="cls-4" d="m170.42,46.46c0,2.17-.64,3.71-3.04,3.71-1.58,0-2.49-.55-2.86-1.74-.5,1.01-1.62,1.74-3.71,1.74s-3.45-1.08-3.45-3.02c0-2.65,2.22-3.68,6.98-4.14v-1.81c0-1.67-1.03-2.17-2.52-2.17-.64,0-1.3.14-1.85.43,1.05.07,1.58.69,1.58,1.62,0,1.01-.69,1.72-1.85,1.72s-1.83-.78-1.83-1.78c0-1.81,1.81-3.06,4.9-3.06,3.75,0,5.42,1.4,5.42,4.05v5.76c0,.69.18.94.55.94.55,0,.82-.89.89-2.26l.8.02Zm-6.08-.09v-2.4c-2.26.43-3.11.96-3.11,2.7,0,1.33.48,1.94,1.4,1.94s1.72-.82,1.72-2.24Z"/><path class="cls-4" d="m197.44,48.95v.92h-6.61v-.92h1.12v-7.39c0-1.21-.46-1.67-1.21-1.67-.89,0-1.78.55-2.36,2.01v7.04h.98v.92h-5.95v-.92h1.1v-7.46c0-1.14-.55-1.62-1.28-1.62-.89,0-1.76.57-2.31,1.88v7.21h1.12v.92h-6.59v-.92h1.6v-9.81h-1.6v-.89h5.47v2.01c.78-1.6,2.42-2.31,4.12-2.31s2.91.82,3.25,2.52c.82-1.67,2.47-2.52,4.19-2.52,2.04,0,3.34,1.05,3.34,3.55v7.46h1.62Z"/><path class="cls-4" d="m209.71,46.35c-.82,2.31-2.22,3.82-5.1,3.82s-6.24-1.67-6.24-6.13,3.16-6.08,6.29-6.08c2.95,0,4.67,1.56,4.67,3.57,0,1.42-.91,2.1-2.04,2.1-1.19,0-1.81-.75-1.81-1.67s.64-1.65,1.69-1.65c.3,0,.55.07.75.16-.43-.8-1.28-1.21-2.24-1.21-1.78,0-3.23,1.14-3.23,4.62,0,2.84.94,4.78,3.09,4.78,1.72,0,2.56-1.28,3.2-2.7l.96.39Z"/><path class="cls-4" d="m222.37,46.35c-.82,2.31-2.22,3.82-5.1,3.82s-6.24-1.67-6.24-6.13,3.16-6.08,6.29-6.08c2.95,0,4.67,1.56,4.67,3.57,0,1.42-.91,2.1-2.04,2.1-1.19,0-1.81-.75-1.81-1.67s.64-1.65,1.69-1.65c.3,0,.55.07.75.16-.43-.8-1.28-1.21-2.24-1.21-1.78,0-3.23,1.14-3.23,4.62,0,2.84.94,4.78,3.09,4.78,1.72,0,2.56-1.28,3.2-2.7l.96.39Z"/><path class="cls-4" d="m236.75,46.46c0,2.17-.64,3.71-3.04,3.71-1.58,0-2.49-.55-2.86-1.74-.5,1.01-1.62,1.74-3.71,1.74s-3.45-1.08-3.45-3.02c0-2.65,2.22-3.68,6.98-4.14v-1.81c0-1.67-1.03-2.17-2.52-2.17-.64,0-1.3.14-1.85.43,1.05.07,1.58.69,1.58,1.62,0,1.01-.69,1.72-1.85,1.72s-1.83-.78-1.83-1.78c0-1.81,1.81-3.06,4.9-3.06,3.75,0,5.42,1.4,5.42,4.05v5.76c0,.69.18.94.55.94.55,0,.82-.89.89-2.26l.8.02Zm-6.08-.09v-2.4c-2.26.43-3.11.96-3.11,2.7,0,1.33.48,1.94,1.4,1.94s1.72-.82,1.72-2.24Z"/><path class="cls-4" d="m248.82,40.56c0,1.67-.82,2.49-2.04,2.49-1.14,0-1.81-.75-1.81-1.74s.69-1.69,1.74-1.69c.48,0,.89.18,1.19.46-.25-1.1-1.12-1.3-1.74-1.3-1.51,0-3.11,1.26-3.11,4.53v5.65h2.26v.92h-7.73v-.92h1.6v-9.81h-1.6v-.89h5.47v1.88c.53-1.33,1.58-2.17,3.09-2.17,1.42,0,2.68.71,2.68,2.61Z"/><path class="cls-4" d="m258.91,45.89c-.32,3.2-.94,4.28-3.66,4.28-2.1,0-3.43-.78-3.43-3.82v-7.18h-2.1v-.92h2.1v-3.48h3.84v3.48h2.86v.92h-2.86v8.17c0,1.28.32,1.56.87,1.56.87,0,1.17-.87,1.49-3.06l.89.07Z"/><path class="cls-4" d="m274.39,48.95v.92h-6.45v-.92h.98v-7.71c0-.73-.46-1.4-1.3-1.4-.89,0-1.58.59-2.17,1.92v7.18h1.17v.92h-6.63v-.92h1.6v-14.73h-1.6v-.92h5.47v6.93c.73-1.44,2.22-2.29,4-2.29,2.17,0,3.34,1.26,3.34,3.32v7.69h1.6Z"/><path class="cls-4" d="m287.96,38.25v.89h-.78c-.57,0-1.08.23-1.49,1.28l-4.3,11.14c-.78,1.99-1.74,2.97-3.39,2.97-1.56,0-2.88-.92-2.88-2.63,0-1.26.73-2.04,1.88-2.04.96,0,1.65.53,1.65,1.56s-.71,1.51-1.56,1.51c-.48,0-.82-.16-1.08-.39.27.73,1.03,1.17,1.92,1.17,1.14,0,1.97-.8,2.49-2.4l.5-1.49-5.15-10.68h-1.46v-.89h7.18v.89h-1.4l2.63,5.74,1.67-4.41c.37-.96.07-1.33-.62-1.33h-.85v-.89h5.01Z"/><path class="cls-1" d="m60.81,10.23c-.37.07-.73.14-1.1.22-.72.16-1.44.35-2.14.57-1.41.43-2.77.97-4.08,1.6-.13.06-.26.13-.39.19-2.44,1.22-4.68,2.79-6.53,4.73-.02.02-.04.04-.05.06-.14.15-.27.31-.4.46-.91.86-1.73,1.76-2.39,2.72-1.94,2.82-1.86,6.61-1.7,10.08.19,3.98.36,7.96.53,11.95.04,1,.14,2.97.25,5.06.29,7.52.6,15.05.9,22.57.05,1.16.08,2.33.1,3.49.01,1.19.05,2.4-.14,3.55-.08.45-.17.9-.33,1.32-.23.61-.6,1.17-1.15,1.52-.07.05-.15.09-.19.17-.22.48,1.02.21,1.15.18.37-.07.73-.14,1.1-.22.72-.16,1.44-.35,2.14-.57,1.41-.43,2.77-.97,4.08-1.6.13-.06.26-.13.39-.19,2.44-1.22,4.68-2.79,6.53-4.73.02-.02.04-.04.05-.06,2.63-2.79,4.37-6.39,4.43-10.44.08-4.9-.25-9.84-.47-14.77-.08-1.89-.17-3.77-.25-5.66-.14-4.01-.31-8.03-.5-12.05-.13-3.3-.27-6.61-.4-9.91-.05-1.16-.08-2.33-.1-3.49-.01-1.19-.05-2.4.14-3.55.08-.45.17-.9.33-1.32.23-.61.6-1.17,1.15-1.52.07-.05.15-.09.19-.17.22-.48-1.02-.21-1.15-.18Z"/><path class="cls-2" d="m39.12,20.09c-.37.07-.73.14-1.1.22-.72.16-1.44.35-2.14.57-1.41.43-2.77.97-4.08,1.6-.13.06-.26.13-.39.19-2.44,1.22-4.68,2.79-6.53,4.73-.02.02-.04.04-.05.06-2.63,2.79-4.37,6.39-4.43,10.44-.08,4.9.25,9.84.47,14.77.08,1.75.15,3.51.23,5.26.32,9.16,1.24,18.38,1.17,27.55,0,.41-.06.84-.28,1.19-.64,1.02-3.15.99-4.16,1-1.39.02-2.82-.13-4.12-.59-2.83-1.02-4.92-3.17-6.36-5.2,3.25-.03,6.12-2.78,6.8-6.81.78-4.7-1.72-8.99-5.61-10.04-3.36-.93-6.21,1.21-7.54,3.83-4.17,8.23,5.39,20.65,14.63,21.87,4.42.58,8.71-.58,12.39-2.51,3.75-1.98,8.12-4.79,10.51-8.25,2.06-2.99,1.59-6.28,1.47-9.66-.15-4.19-.29-8.37-.44-12.56-.01-9.15-.65-18.31-1.01-27.44-.05-1.16-.08-2.33-.1-3.49-.01-1.19-.05-2.4.14-3.55.08-.45.17-.9.33-1.32.23-.61.6-1.17,1.15-1.52.07-.05.15-.09.19-.17.22-.48-1.02-.21-1.15-.18ZM5.72,81.68c.06.02.13.02.19.04-.06,0-.13,0-.19.01-.01-.02-.03-.04-.04-.06h.04Z"/><path class="cls-3" d="m64.82,70.8c.37-.07.73-.14,1.1-.22.72-.16,1.44-.35,2.14-.57,1.41-.43,2.77-.97,4.08-1.6.13-.06.26-.13.39-.19,2.44-1.22,4.68-2.79,6.53-4.73.02-.02.04-.04.05-.06,2.63-2.79,4.37-6.39,4.43-10.44.08-4.9-.25-9.84-.47-14.77-.08-1.75-.15-3.51-.23-5.26-.32-9.16-1.24-18.38-1.17-27.55,0-.41.06-.84.28-1.19.64-1.02,3.15-.99,4.16-1,1.39-.02,2.82.13,4.12.59,2.83,1.02,4.92,3.17,6.36,5.2-3.25.03-6.12,2.78-6.8,6.81-.78,4.7,1.72,8.99,5.61,10.04,3.36.93,6.21-1.21,7.54-3.83,4.17-8.23-5.39-20.65-14.63-21.87-4.42-.58-8.71.58-12.39,2.51-3.75,1.98-8.12,4.79-10.51,8.25-2.06,2.99-1.59,6.28-1.47,9.66.15,4.19.29,8.37.44,12.56.01,9.15.65,18.31,1.01,27.44.05,1.16.08,2.33.1,3.49.01,1.19.05,2.4-.14,3.55-.08.45-.17.9-.33,1.32-.23.61-.6,1.17-1.15,1.52-.07.05-.15.09-.19.17-.22.48,1.02.21,1.15.18ZM98.22,9.2c-.06-.02-.13-.02-.19-.04.06,0,.13,0,.19-.01.01.02.03.04.04.06h-.04Z"/></g></svg>