<?xml version="1.0" encoding="UTF-8"?><svg id="Layer_2" xmlns="http://www.w3.org/2000/svg" viewBox="0 0 103.94 90.89"><defs><style>.cls-1{fill:#ee3b94;}.cls-2{fill:#ed0f86;}.cls-3{fill:#e75fa3;}</style></defs><g id="Layer_1-2"><path class="cls-1" d="m60.81,10.23c-.37.07-.73.14-1.1.22-.72.16-1.44.35-2.14.57-1.41.43-2.77.97-4.08,1.6-.13.06-.26.13-.39.19-2.44,1.22-4.68,2.79-6.53,4.73-.02.02-.04.04-.05.06-.14.15-.27.31-.4.46-.91.86-1.73,1.76-2.39,2.72-1.94,2.82-1.86,6.61-1.7,10.08.19,3.98.36,7.96.53,11.95.04,1,.14,2.97.25,5.06.29,7.52.6,15.05.9,22.57.05,1.16.08,2.33.1,3.49.01,1.19.05,2.4-.14,3.55-.08.45-.17.9-.33,1.32-.23.61-.6,1.17-1.15,1.52-.07.05-.15.09-.19.17-.22.48,1.02.21,1.15.18.37-.07.73-.14,1.1-.22.72-.16,1.44-.35,2.14-.57,1.41-.43,2.77-.97,4.08-1.6.13-.06.26-.13.39-.19,2.44-1.22,4.68-2.79,6.53-4.73.02-.02.04-.04.05-.06,2.63-2.79,4.37-6.39,4.43-10.44.08-4.9-.25-9.84-.47-14.77-.08-1.89-.17-3.77-.25-5.66-.14-4.01-.31-8.03-.5-12.05-.13-3.3-.27-6.61-.4-9.91-.05-1.16-.08-2.33-.1-3.49-.01-1.19-.05-2.4.14-3.55.08-.45.17-.9.33-1.32.23-.61.6-1.17,1.15-1.52.07-.05.15-.09.19-.17.22-.48-1.02-.21-1.15-.18Z"/><path class="cls-2" d="m39.12,20.09c-.37.07-.73.14-1.1.22-.72.16-1.44.35-2.14.57-1.41.43-2.77.97-4.08,1.6-.13.06-.26.13-.39.19-2.44,1.22-4.68,2.79-6.53,4.73-.02.02-.04.04-.05.06-2.63,2.79-4.37,6.39-4.43,10.44-.08,4.9.25,9.84.47,14.77.08,1.75.15,3.51.23,5.26.32,9.16,1.24,18.38,1.17,27.55,0,.41-.06.84-.28,1.19-.64,1.02-3.15.99-4.16,1-1.39.02-2.82-.13-4.12-.59-2.83-1.02-4.92-3.17-6.36-5.2,3.25-.03,6.12-2.78,6.8-6.81.78-4.7-1.72-8.99-5.61-10.04-3.36-.93-6.21,1.21-7.54,3.83-4.17,8.23,5.39,20.65,14.63,21.87,4.42.58,8.71-.58,12.39-2.51,3.75-1.98,8.12-4.79,10.51-8.25,2.06-2.99,1.59-6.28,1.47-9.66-.15-4.19-.29-8.37-.44-12.56-.01-9.15-.65-18.31-1.01-27.44-.05-1.16-.08-2.33-.1-3.49-.01-1.19-.05-2.4.14-3.55.08-.45.17-.9.33-1.32.23-.61.6-1.17,1.15-1.52.07-.05.15-.09.19-.17.22-.48-1.02-.21-1.15-.18ZM5.72,81.68c.06.02.13.02.19.04-.06,0-.13,0-.19.01-.01-.02-.03-.04-.04-.06h.04Z"/><path class="cls-3" d="m64.82,70.8c.37-.07.73-.14,1.1-.22.72-.16,1.44-.35,2.14-.57,1.41-.43,2.77-.97,4.08-1.6.13-.06.26-.13.39-.19,2.44-1.22,4.68-2.79,6.53-4.73.02-.02.04-.04.05-.06,2.63-2.79,4.37-6.39,4.43-10.44.08-4.9-.25-9.84-.47-14.77-.08-1.75-.15-3.51-.23-5.26-.32-9.16-1.24-18.38-1.17-27.55,0-.41.06-.84.28-1.19.64-1.02,3.15-.99,4.16-1,1.39-.02,2.82.13,4.12.59,2.83,1.02,4.92,3.17,6.36,5.2-3.25.03-6.12,2.78-6.8,6.81-.78,4.7,1.72,8.99,5.61,10.04,3.36.93,6.21-1.21,7.54-3.83,4.17-8.23-5.39-20.65-14.63-21.87-4.42-.58-8.71.58-12.39,2.51-3.75,1.98-8.12,4.79-10.51,8.25-2.06,2.99-1.59,6.28-1.47,9.66.15,4.19.29,8.37.44,12.56.01,9.15.65,18.31,1.01,27.44.05,1.16.08,2.33.1,3.49.01,1.19.05,2.4-.14,3.55-.08.45-.17.9-.33,1.32-.23.61-.6,1.17-1.15,1.52-.07.05-.15.09-.19.17-.22.48,1.02.21,1.15.18ZM98.22,9.2c-.06-.02-.13-.02-.19-.04.06,0,.13,0,.19-.01.01.02.03.04.04.06h-.04Z"/></g></svg>